# xmcd
#
# Track frame offsets:
#	150
#	11048
#	25064
#	37093
#	50388
#	62133
#	71520
#	84376
#	96211
#	108293
#	122479
#	132591
#	144666
#	157646
#	165468
#	178638
#	191622
#	205564
#	216171
#	228974
#	241081
#	250572
#	262495
#	273034
#	285040
#	296362
#	307195
#	319647
#
# Disc length: 4387
#
# Revision: 1
# Processed by: cddbd v1.5.1PL0 Copyright (c) Steve Scherf et al.
# Submitted via: ExactAudioCopy v0.95a5
# Normalized: r0:DSETVAR1
#
DISCID=8011211c
DTITLE=Various Artist - The Leiber and Stoller Story 1: Hard Times [UK]
DYEAR=2004
DGENRE=R&B
TTITLE0=Bobby Nunn and The Robins - That's What The Good Book Says (Take 1)
TTITLE1=Charles Brown - Hard Times
TTITLE2=Bull Moose Jackson - Nosey Joe
TTITLE3=Amos Milburn - Flying Home
TTITLE4=Roy Hawkins - Gloom and Misery All Around (Take 1)
TTITLE5=The Du Droppers - Bam Balam
TTITLE6=Jimmy Witherspoon - Real Ugly Woman
TTITLE7=Little Esther - Mainliner
TTITLE8=Little Willie Littlefield - Kansas City aka KC Lovin'
TTITLE9=Little Mickey Champion - Lovin' Jim
TTITLE10=Sam "Hicghpocket's" Henderson - Too Bad Sweet Mama
TTITLE11=The Robins - Ten Days In Jail
TTITLE12=Milt Trenier - Squeeze Me
TTITLE13=Big Mama Thornton - I Smell A Rat
TTITLE14=Joe Liggins - Yeah, Yeah, Yeah
TTITLE15=Willy and Ruth - Come A Little Bit Closer
TTITLE16=The Honey Bears - It's A Miracle
TTITLE17=The Cheers - Bazoom (I Need Your Lovin')
TTITLE18=Vicki Young - Riot In Cell Block #9
TTITLE19=Freddie Bell and The Bell Boys - Hound Dog
TTITLE20=Jack Cardwell - Whadaya Want
TTITLE21=Ella Mae Morse - Down In Mexico
TTITLE22=Young Jessie - Hot Dog
TTITLE23=Larry Evans - What About Me
TTITLE24=Etta James - Tears Of Joy
TTITLE25=The Drifters - Ruby Baby
TTITLE26=Frankie Marshall - If It's The Last Thing I Do
TTITLE27=Edith Piaf - L'homme A La Moto (Black Denim Trousers and Motorcycle Boots)
EXTD=
EXTT0=
EXTT1=
EXTT2=
EXTT3=
EXTT4=
EXTT5=
EXTT6=
EXTT7=
EXTT8=
EXTT9=
EXTT10=
EXTT11=
EXTT12=
EXTT13=
EXTT14=
EXTT15=
EXTT16=
EXTT17=
EXTT18=
EXTT19=
EXTT20=
EXTT21=
EXTT22=
EXTT23=
EXTT24=
EXTT25=
EXTT26=
EXTT27=
PLAYORDER=
